<mxfile host="app.diagrams.net" agent="Mozilla/5.0 (Windows NT 10.0; Win64; x64) AppleWebKit/537.36 (KHTML, like Gecko) Chrome/132.0.0.0 Safari/537.36" version="26.0.6">
  <diagram name="Page-1" id="2VqUC7ckbVSWQnujir_G">
    <mxGraphModel dx="1434" dy="778" grid="0" gridSize="10" guides="1" tooltips="1" connect="1" arrows="1" fold="1" page="1" pageScale="1" pageWidth="850" pageHeight="1100" math="0" shadow="0">
      <root>
        <mxCell id="0" />
        <mxCell id="1" parent="0" />
        <mxCell id="0ysJxvVG68xWzIls82tq-35" value="&lt;pre&gt;&lt;b&gt;Utilities&lt;/b&gt;&lt;/pre&gt;" style="shape=ext;double=1;rounded=1;whiteSpace=wrap;html=1;fillColor=#f5f5f5;fontColor=#333333;strokeColor=#666666;verticalAlign=bottom;" vertex="1" parent="1">
          <mxGeometry x="147" y="282.5" width="235" height="397" as="geometry" />
        </mxCell>
        <mxCell id="0ysJxvVG68xWzIls82tq-32" value="&lt;pre&gt;&lt;b&gt;Core Components&lt;/b&gt;&lt;/pre&gt;" style="shape=ext;double=1;rounded=1;whiteSpace=wrap;html=1;fillColor=#f5f5f5;fontColor=#333333;strokeColor=#666666;verticalAlign=bottom;" vertex="1" parent="1">
          <mxGeometry x="390" y="248" width="456" height="466" as="geometry" />
        </mxCell>
        <mxCell id="0ysJxvVG68xWzIls82tq-31" value="&lt;pre&gt;&lt;b&gt;Entry Points&lt;/b&gt;&lt;/pre&gt;" style="shape=ext;double=1;rounded=1;whiteSpace=wrap;html=1;fillColor=#f5f5f5;fontColor=#333333;strokeColor=#666666;verticalAlign=top;" vertex="1" parent="1">
          <mxGeometry x="144" y="51" width="593" height="125" as="geometry" />
        </mxCell>
        <mxCell id="0ysJxvVG68xWzIls82tq-25" value="" style="edgeStyle=orthogonalEdgeStyle;rounded=0;orthogonalLoop=1;jettySize=auto;align=center;html=1;fontStyle=1" edge="1" parent="1" source="0ysJxvVG68xWzIls82tq-1" target="0ysJxvVG68xWzIls82tq-9">
          <mxGeometry relative="1" as="geometry" />
        </mxCell>
        <mxCell id="0ysJxvVG68xWzIls82tq-1" value="0_prepare_data.py" style="rounded=0;align=center;html=1;fontStyle=1;whiteSpace=wrap;" vertex="1" parent="1">
          <mxGeometry x="195" y="87" width="120" height="60" as="geometry" />
        </mxCell>
        <mxCell id="0ysJxvVG68xWzIls82tq-17" value="" style="edgeStyle=orthogonalEdgeStyle;rounded=0;orthogonalLoop=1;jettySize=auto;entryX=0.5;entryY=0;entryDx=0;entryDy=0;curved=1;align=center;html=1;fontStyle=1" edge="1" parent="1" source="0ysJxvVG68xWzIls82tq-2" target="0ysJxvVG68xWzIls82tq-3">
          <mxGeometry relative="1" as="geometry" />
        </mxCell>
        <mxCell id="0ysJxvVG68xWzIls82tq-18" value="" style="edgeStyle=orthogonalEdgeStyle;rounded=0;orthogonalLoop=1;jettySize=auto;entryX=0.5;entryY=0;entryDx=0;entryDy=0;curved=1;align=center;html=1;fontStyle=1" edge="1" parent="1" source="0ysJxvVG68xWzIls82tq-2" target="0ysJxvVG68xWzIls82tq-7">
          <mxGeometry relative="1" as="geometry" />
        </mxCell>
        <mxCell id="0ysJxvVG68xWzIls82tq-19" value="" style="edgeStyle=orthogonalEdgeStyle;rounded=0;orthogonalLoop=1;jettySize=auto;entryX=0.5;entryY=0;entryDx=0;entryDy=0;curved=1;align=center;html=1;fontStyle=1" edge="1" parent="1" source="0ysJxvVG68xWzIls82tq-2" target="0ysJxvVG68xWzIls82tq-6">
          <mxGeometry relative="1" as="geometry" />
        </mxCell>
        <mxCell id="0ysJxvVG68xWzIls82tq-20" value="" style="edgeStyle=orthogonalEdgeStyle;rounded=0;orthogonalLoop=1;jettySize=auto;curved=1;align=center;html=1;fontStyle=1" edge="1" parent="1" source="0ysJxvVG68xWzIls82tq-2" target="0ysJxvVG68xWzIls82tq-4">
          <mxGeometry relative="1" as="geometry">
            <Array as="points">
              <mxPoint x="804" y="227" />
            </Array>
          </mxGeometry>
        </mxCell>
        <mxCell id="0ysJxvVG68xWzIls82tq-2" value="1_train.py" style="rounded=0;align=center;html=1;fontStyle=1;whiteSpace=wrap;" vertex="1" parent="1">
          <mxGeometry x="559" y="89" width="120" height="60" as="geometry" />
        </mxCell>
        <mxCell id="0ysJxvVG68xWzIls82tq-28" value="" style="edgeStyle=orthogonalEdgeStyle;rounded=0;orthogonalLoop=1;jettySize=auto;curved=1;align=center;html=1;fontStyle=1;" edge="1" parent="1" source="0ysJxvVG68xWzIls82tq-3" target="0ysJxvVG68xWzIls82tq-26">
          <mxGeometry relative="1" as="geometry">
            <Array as="points">
              <mxPoint x="536" y="600" />
            </Array>
          </mxGeometry>
        </mxCell>
        <mxCell id="0ysJxvVG68xWzIls82tq-38" style="edgeStyle=orthogonalEdgeStyle;rounded=0;orthogonalLoop=1;jettySize=auto;html=1;curved=1;" edge="1" parent="1" source="0ysJxvVG68xWzIls82tq-3" target="0ysJxvVG68xWzIls82tq-9">
          <mxGeometry relative="1" as="geometry" />
        </mxCell>
        <mxCell id="0ysJxvVG68xWzIls82tq-3" value="DynamicDatasetLoader.py" style="rounded=0;align=center;html=1;fontStyle=1;whiteSpace=wrap;" vertex="1" parent="1">
          <mxGeometry x="449" y="403" width="169" height="60" as="geometry" />
        </mxCell>
        <mxCell id="0ysJxvVG68xWzIls82tq-4" value="Component.py" style="rounded=0;align=center;html=1;fontStyle=1;whiteSpace=wrap;" vertex="1" parent="1">
          <mxGeometry x="704" y="613" width="120" height="60" as="geometry" />
        </mxCell>
        <mxCell id="0ysJxvVG68xWzIls82tq-23" value="" style="edgeStyle=orthogonalEdgeStyle;rounded=0;orthogonalLoop=1;jettySize=auto;curved=1;align=center;html=1;fontStyle=1" edge="1" parent="1" source="0ysJxvVG68xWzIls82tq-5" target="0ysJxvVG68xWzIls82tq-4">
          <mxGeometry relative="1" as="geometry" />
        </mxCell>
        <mxCell id="0ysJxvVG68xWzIls82tq-5" value="BaseModel.py" style="rounded=0;align=center;html=1;fontStyle=1;whiteSpace=wrap;" vertex="1" parent="1">
          <mxGeometry x="660" y="496" width="120" height="60" as="geometry" />
        </mxCell>
        <mxCell id="0ysJxvVG68xWzIls82tq-21" value="" style="edgeStyle=orthogonalEdgeStyle;rounded=0;orthogonalLoop=1;jettySize=auto;curved=1;align=center;html=1;fontStyle=1" edge="1" parent="1" source="0ysJxvVG68xWzIls82tq-6" target="0ysJxvVG68xWzIls82tq-5">
          <mxGeometry relative="1" as="geometry" />
        </mxCell>
        <mxCell id="0ysJxvVG68xWzIls82tq-37" style="edgeStyle=orthogonalEdgeStyle;rounded=0;orthogonalLoop=1;jettySize=auto;html=1;entryX=1;entryY=0.5;entryDx=0;entryDy=0;curved=1;" edge="1" parent="1" source="0ysJxvVG68xWzIls82tq-6" target="0ysJxvVG68xWzIls82tq-8">
          <mxGeometry relative="1" as="geometry">
            <Array as="points">
              <mxPoint x="690" y="496" />
              <mxPoint x="492" y="496" />
              <mxPoint x="492" y="494" />
            </Array>
          </mxGeometry>
        </mxCell>
        <mxCell id="0ysJxvVG68xWzIls82tq-6" value="DynADModel.py" style="rounded=0;align=center;html=1;fontStyle=1;whiteSpace=wrap;" vertex="1" parent="1">
          <mxGeometry x="630" y="303" width="120" height="60" as="geometry" />
        </mxCell>
        <mxCell id="0ysJxvVG68xWzIls82tq-22" value="" style="edgeStyle=orthogonalEdgeStyle;rounded=0;orthogonalLoop=1;jettySize=auto;curved=1;align=center;html=1;fontStyle=1" edge="1" parent="1" source="0ysJxvVG68xWzIls82tq-7" target="0ysJxvVG68xWzIls82tq-3">
          <mxGeometry relative="1" as="geometry" />
        </mxCell>
        <mxCell id="0ysJxvVG68xWzIls82tq-7" value="Settings.py" style="rounded=0;align=center;html=1;fontStyle=1;whiteSpace=wrap;" vertex="1" parent="1">
          <mxGeometry x="410" y="303" width="120" height="60" as="geometry" />
        </mxCell>
        <mxCell id="0ysJxvVG68xWzIls82tq-8" value="utils.py" style="rounded=0;align=center;html=1;fontStyle=1;whiteSpace=wrap;" vertex="1" parent="1">
          <mxGeometry x="195" y="463.5" width="120" height="60" as="geometry" />
        </mxCell>
        <mxCell id="0ysJxvVG68xWzIls82tq-9" value="AnomalyGeneration.py" style="rounded=0;align=center;html=1;fontStyle=1;whiteSpace=wrap;" vertex="1" parent="1">
          <mxGeometry x="187" y="376.5" width="136" height="60" as="geometry" />
        </mxCell>
        <mxCell id="0ysJxvVG68xWzIls82tq-26" value="anomaly_tracking_utils.py" style="rounded=0;align=center;html=1;fontStyle=1;whiteSpace=wrap;" vertex="1" parent="1">
          <mxGeometry x="170" y="567.5" width="170" height="60" as="geometry" />
        </mxCell>
      </root>
    </mxGraphModel>
  </diagram>
</mxfile>
